<?xml version="1.0" encoding="utf-8"?>
<!-- Generator: Adobe Illustrator 16.0.0, SVG Export Plug-In . SVG Version: 6.00 Build 0)  -->
<!DOCTYPE svg PUBLIC "-//W3C//DTD SVG 1.1//EN" "http://www.w3.org/Graphics/SVG/1.1/DTD/svg11.dtd">
<svg version="1.1" id="Layer_1" xmlns="http://www.w3.org/2000/svg" xmlns:xlink="http://www.w3.org/1999/xlink" x="0px" y="0px"
	 width="18px" height="21px" viewBox="281.756 287.109 49.101 65.395"
	 enable-background="new 281.756 287.109 49.101 65.395" xml:space="preserve" fill="#ff6600">
<g>
	<g>
		<path d="M330.783,302.53c0-0.582-0.218-1.164-0.654-1.601l-12.221-13.093c-0.437-0.509-1.091-0.728-1.745-0.728h-30.552
			c-2.11,0-3.855,1.746-3.855,3.855v57.684c0,2.11,1.746,3.855,3.855,3.855h41.39c2.109,0,3.855-1.746,3.855-3.855L330.783,302.53z
			 M327.001,349.594h-41.39c-0.509,0-0.946-0.437-0.946-0.946v-57.684c0-0.509,0.437-0.946,0.946-0.946h30.042v8.656
			c0,2.328,1.892,4.219,4.219,4.219h8.074v45.754C327.946,349.157,327.511,349.594,327.001,349.594z"/>
		<path d="M300.814,335.773c-0.291-0.437-0.727-0.509-1.164-0.146c-0.509,0.364-1.31,0.8-2.255,0.8c-2.11,0-3.055-1.673-3.055-3.273
			c0-1.601,0.873-3.128,3.055-3.128c0.8,0,1.527,0.291,2.037,0.582s0.873,0.218,1.164-0.218l0.364-0.655
			c0.291-0.437,0.218-0.873-0.218-1.164c-0.654-0.436-1.818-1.018-3.491-1.018c-3.346,0-5.747,2.473-5.747,5.601
			c0,3.273,2.182,5.674,5.747,5.674c1.818,0,3.128-0.728,3.782-1.31c0.437-0.291,0.437-0.727,0.146-1.164L300.814,335.773z"/>
		<path d="M306.124,330.754c0-0.437,0.364-0.728,1.164-0.728c0.728,0,1.236,0.291,1.746,0.509c0.437,0.218,0.873,0.291,1.164-0.291
			l0.363-0.728c0.218-0.437,0.218-0.8-0.291-1.164c-0.509-0.363-1.673-0.8-2.982-0.8c-2.182,0-3.928,1.309-3.928,3.346
			c0,3.419,4.801,3.201,4.801,4.728c0,0.437-0.364,0.728-1.164,0.728c-0.945,0-1.6-0.509-1.964-0.655
			c-0.509-0.291-0.873-0.218-1.164,0.218l-0.509,0.655c-0.364,0.582-0.146,0.873,0.145,1.164c0.582,0.437,1.964,1.091,3.492,1.091
			c2.474,0,3.855-1.601,3.855-3.419C310.925,331.99,306.124,332.354,306.124,330.754z"/>
		<path d="M321.764,327.699h-1.091c-0.51,0-0.801,0.218-0.946,0.727l-1.745,5.528c-0.219,0.655-0.437,1.746-0.437,1.746l0,0
			c0,0-0.219-1.091-0.437-1.746l-1.746-5.528c-0.146-0.509-0.437-0.727-0.945-0.727h-1.164c-0.654,0-0.873,0.364-0.654,0.945
			l3.346,9.311c0.146,0.437,0.509,0.655,0.945,0.655h1.31c0.51,0,0.8-0.218,0.945-0.655l3.273-9.311
			C322.709,328.063,322.418,327.699,321.764,327.699z"/>
	</g>
</g>
</svg>
