<svg xmlns="http://www.w3.org/2000/svg" width="89.073" height="79.151" viewBox="0 0 89.073 79.151">
  <g id="logo" transform="translate(-130.9 -173.4)">
    <g id="Group_39" data-name="Group 39" transform="translate(153.852 173.4)">
      <g id="Group_29" data-name="Group 29" transform="translate(0 46.394)">
        <rect id="Rectangle_87" data-name="Rectangle 87" width="3.027" height="10.833" fill="#f60"/>
      </g>
      <g id="Group_30" data-name="Group 30" transform="translate(4.488 46.394)">
        <rect id="Rectangle_88" data-name="Rectangle 88" width="3.027" height="10.833" fill="#f60"/>
      </g>
      <g id="Group_31" data-name="Group 31" transform="translate(8.987 46.394)">
        <rect id="Rectangle_89" data-name="Rectangle 89" width="3.027" height="10.833" fill="#f60"/>
      </g>
      <g id="Group_32" data-name="Group 32" transform="translate(13.474 46.394)">
        <rect id="Rectangle_90" data-name="Rectangle 90" width="3.027" height="10.833" fill="#f60"/>
      </g>
      <g id="Group_33" data-name="Group 33" transform="translate(17.962 42.994)">
        <rect id="Rectangle_91" data-name="Rectangle 91" width="3.027" height="14.234" fill="#f60"/>
      </g>
      <g id="Group_34" data-name="Group 34" transform="translate(22.449 38.284)">
        <rect id="Rectangle_92" data-name="Rectangle 92" width="3.027" height="18.943" fill="#f60"/>
      </g>
      <g id="Group_35" data-name="Group 35" transform="translate(26.937 38.284)">
        <rect id="Rectangle_93" data-name="Rectangle 93" width="3.027" height="18.943" fill="#f60"/>
      </g>
      <g id="Group_36" data-name="Group 36" transform="translate(31.424 29.835)">
        <rect id="Rectangle_94" data-name="Rectangle 94" width="3.027" height="27.393" fill="#f60"/>
      </g>
      <g id="Group_37" data-name="Group 37" transform="translate(35.912 24.716)">
        <rect id="Rectangle_95" data-name="Rectangle 95" width="3.027" height="32.511" fill="#f60"/>
      </g>
      <g id="Group_38" data-name="Group 38" transform="translate(40.399 5.387)">
        <rect id="Rectangle_96" data-name="Rectangle 96" width="3.027" height="51.84" fill="#f60"/>
      </g>
      <path id="Path_21" data-name="Path 21" d="M327.3,225.86h0V173.4h43.426v9.045A43.413,43.413,0,0,1,327.3,225.86Z" transform="translate(-327.3 -173.4)"/>
    </g>
    <path id="Path_22" data-name="Path 22" d="M417.371,270.242a5.983,5.983,0,1,1,4.85-9.454l-6.533-.082v5.376H428.94l-.245-2.524-.012-.012a11.33,11.33,0,1,0-3.167,8.624l-3.868-3.74A5.873,5.873,0,0,1,417.371,270.242Z" transform="translate(-242.951 -70.209)" fill="#fff"/>
    <g id="Group_41" data-name="Group 41" transform="translate(173.765 240.397)">
      <g id="Group_40" data-name="Group 40" transform="translate(0 0)">
        <path id="Path_23" data-name="Path 23" d="M503.765,755.967a3.2,3.2,0,1,1,2.594-5.06l-3.494-.047v2.887h7.094l-.129-1.344v-.012a6.065,6.065,0,1,0-1.695,4.616l-2.068-2A3.265,3.265,0,0,1,503.765,755.967Z" transform="translate(-497.7 -746.7)"/>
      </g>
    </g>
    <g id="Group_43" data-name="Group 43" transform="translate(130.9 237.149)">
      <g id="Group_42" data-name="Group 42" transform="translate(0 0)">
        <path id="Path_24" data-name="Path 24" d="M140.436,733.648H135a4.11,4.11,0,0,1-4.1-4.114v-6.521A4.117,4.117,0,0,1,135,718.9h5.434v3.541H135a.574.574,0,0,0-.573.573v6.533a.574.574,0,0,0,.573.573h5.434Z" transform="translate(-130.9 -718.9)"/>
      </g>
    </g>
    <g id="Group_45" data-name="Group 45" transform="translate(133.448 242.758)">
      <g id="Group_44" data-name="Group 44" transform="translate(0)">
        <rect id="Rectangle_97" data-name="Rectangle 97" width="6.603" height="3.541"/>
      </g>
    </g>
    <g id="Group_47" data-name="Group 47" transform="translate(157.86 241.624)">
      <g id="Group_46" data-name="Group 46" transform="translate(0 0)">
        <rect id="Rectangle_98" data-name="Rectangle 98" width="5.142" height="3.541"/>
      </g>
    </g>
    <g id="Group_49" data-name="Group 49" transform="translate(142.13 239.042)">
      <g id="Group_48" data-name="Group 48" transform="translate(0 0)">
        <path id="Path_25" data-name="Path 25" d="M239.469,748.072H235.94v-6.743a2.7,2.7,0,1,0-5.4,0v6.743H227v-6.743a6.229,6.229,0,1,1,12.458,0v6.743Z" transform="translate(-227 -735.1)"/>
      </g>
    </g>
    <g id="Group_51" data-name="Group 51" transform="translate(143.895 252.013)">
      <g id="Group_50" data-name="Group 50">
        <path id="Path_26" data-name="Path 26" d="M242.1,846.1" transform="translate(-242.1 -846.1)"/>
      </g>
    </g>
    <g id="Group_53" data-name="Group 53" transform="translate(152.823 252.013)">
      <g id="Group_52" data-name="Group 52">
        <path id="Path_27" data-name="Path 27" d="M318.5,846.1" transform="translate(-318.5 -846.1)"/>
      </g>
    </g>
    <g id="Group_55" data-name="Group 55" transform="translate(156.855 237.137)">
      <g id="Group_54" data-name="Group 54" transform="translate(0 0)">
        <path id="Path_28" data-name="Path 28" d="M359.194,733.443h-1.017A5.187,5.187,0,0,1,353,728.266V718.8h3.529v9.466a1.646,1.646,0,0,0,1.648,1.648h1.017Z" transform="translate(-353 -718.8)"/>
      </g>
    </g>
    <g id="Group_57" data-name="Group 57" transform="translate(158.62 237.137)">
      <g id="Group_56" data-name="Group 56">
        <path id="Path_29" data-name="Path 29" d="M368.1,718.8" transform="translate(-368.1 -718.8)" fill="none" stroke="#f60" stroke-miterlimit="10" stroke-width="30.239"/>
      </g>
    </g>
    <g id="Group_59" data-name="Group 59" transform="translate(166.356 240.795)">
      <g id="Group_58" data-name="Group 58">
        <path id="Path_30" data-name="Path 30" d="M437.829,761.132H434.3V755.85a5.76,5.76,0,0,1,5.75-5.75v3.541a2.214,2.214,0,0,0-2.209,2.209v5.282Z" transform="translate(-434.3 -750.1)"/>
      </g>
    </g>
    <g id="Group_61" data-name="Group 61" transform="translate(172.188 241.321)">
      <g id="Group_60" data-name="Group 60">
        <path id="Path_31" data-name="Path 31" d="M484.2,754.6" transform="translate(-484.2 -754.6)"/>
      </g>
    </g>
    <g id="Group_63" data-name="Group 63" transform="translate(188.116 240.876)">
      <g id="Group_62" data-name="Group 62" transform="translate(0 0)">
        <path id="Path_32" data-name="Path 32" d="M626.039,761.878a5.539,5.539,0,1,1,5.539-5.539A5.544,5.544,0,0,1,626.039,761.878Zm0-8.017a2.466,2.466,0,1,0,2.466,2.466A2.474,2.474,0,0,0,626.039,753.862Z" transform="translate(-620.5 -750.8)"/>
      </g>
    </g>
    <g id="Group_65" data-name="Group 65" transform="translate(188.139 237.102)">
      <g id="Group_64" data-name="Group 64" transform="translate(0 0)">
        <rect id="Rectangle_99" data-name="Rectangle 99" width="3.073" height="8.765"/>
      </g>
    </g>
    <g id="Group_68" data-name="Group 68" transform="translate(209.689 240.514)">
      <g id="Group_67" data-name="Group 67" transform="translate(0 0)">
        <g id="Group_66" data-name="Group 66">
          <rect id="Rectangle_100" data-name="Rectangle 100" width="10.284" height="3.073"/>
        </g>
      </g>
    </g>
    <g id="Group_71" data-name="Group 71" transform="translate(209.665 248.846)">
      <g id="Group_70" data-name="Group 70">
        <g id="Group_69" data-name="Group 69">
          <rect id="Rectangle_101" data-name="Rectangle 101" width="10.237" height="3.073"/>
        </g>
      </g>
    </g>
    <g id="Group_73" data-name="Group 73" transform="translate(203.32 240.538)">
      <g id="Group_72" data-name="Group 72">
        <rect id="Rectangle_102" data-name="Rectangle 102" width="3.073" height="11.371"/>
      </g>
    </g>
    <g id="Group_75" data-name="Group 75" transform="translate(203.039 236.366)">
      <g id="Group_74" data-name="Group 74" transform="translate(0 0)">
        <circle id="Ellipse_1" data-name="Ellipse 1" cx="1.846" cy="1.846" r="1.846"/>
      </g>
    </g>
    <g id="Group_78" data-name="Group 78" transform="translate(209.665 241.344)">
      <g id="Group_77" data-name="Group 77">
        <g id="Group_76" data-name="Group 76">
          <path id="Path_33" data-name="Path 33" d="M806.98,764.581l-2.08-2.267,8.18-7.514,2.127,2.232Z" transform="translate(-804.9 -754.8)"/>
        </g>
      </g>
    </g>
  </g>
</svg>
